<svg width="96" height="96" xmlns="http://www.w3.org/2000/svg" xmlns:xlink="http://www.w3.org/1999/xlink" xml:space="preserve" overflow="hidden"><g transform="translate(-1008 -378)"><path d="M1093.5 453.6 1081 441.1C1079.3 439.4 1077 438.8 1074.8 439.2L1070.4 434.8C1074.3 429.8 1076.6 423.4 1076.6 416.6 1076.6 400.1 1063.1 386.6 1046.6 386.6 1030.1 386.6 1016.6 400.1 1016.6 416.6 1016.6 433.1 1030.1 446.6 1046.6 446.6 1053.4 446.6 1059.7 444.3 1064.8 440.4L1069.2 444.8C1068.8 447 1069.4 449.3 1071.1 451L1083.6 463.5C1085 464.9 1086.8 465.6 1088.6 465.6 1090.4 465.6 1092.2 464.9 1093.6 463.5 1096.2 460.7 1096.2 456.3 1093.5 453.6ZM1046.5 440.5C1033.3 440.5 1022.5 429.7 1022.5 416.5 1022.5 403.3 1033.3 392.5 1046.5 392.5 1059.7 392.5 1070.5 403.3 1070.5 416.5 1070.5 429.7 1059.7 440.5 1046.5 440.5Z"/></g></svg>